HIERARCHY
ROOT Hips
{
	OFFSET -3.958830 18.904000 13.208200
	CHANNELS 6 Xposition Yposition Zposition Zrotation Yrotation Xrotation 
	JOINT LHipJoint
	{
		OFFSET 0.000000 0.000000 0.000000
		CHANNELS 3 Zrotation Yrotation Xrotation
		JOINT LeftUpLeg
		{
			OFFSET 1.800000 -1.400000 0.085000
			CHANNELS 3 Zrotation Yrotation Xrotation
			JOINT LeftLeg
			{
				OFFSET 2.215000 -6.000000 0.000000
				CHANNELS 3 Zrotation Yrotation Xrotation
				JOINT LeftFoot
				{
					OFFSET 2.500000 -6.900000 0.000000
					CHANNELS 3 Zrotation Yrotation Xrotation
					JOINT LeftToeBase
					{
						OFFSET 0.200000 -0.500000 1.950000
						CHANNELS 3 Zrotation Yrotation Xrotation
						End Site
						{
							OFFSET 0.000000 0.000000 0.000000
						}
					}
				}
			}
		}
	}
	JOINT RHipJoint
	{
		OFFSET 0.000000 0.000000 0.000000
		CHANNELS 3 Zrotation Yrotation Xrotation
		JOINT RightUpLeg
		{
			OFFSET -1.800000 -1.400000 0.085000
			CHANNELS 3 Zrotation Yrotation Xrotation
			JOINT RightLeg
			{
				OFFSET -2.215000 -6.000000 0.000000
				CHANNELS 3 Zrotation Yrotation Xrotation
				JOINT RightFoot
				{
					OFFSET -2.500000 -6.900000 0.000000
					CHANNELS 3 Zrotation Yrotation Xrotation
					JOINT RightToeBase
					{
						OFFSET -0.200000 -0.500000 1.950000
						CHANNELS 3 Zrotation Yrotation Xrotation
						End Site
						{
							OFFSET 0.000000 0.000000 0.000000
						}
					}
				}
			}
		}
	}
	JOINT LowerBack
	{
		OFFSET 0.000000 0.000000 0.000000
		CHANNELS 3 Zrotation Yrotation Xrotation
		JOINT Spine
		{
			OFFSET -0.087000 1.940000 -0.288900
			CHANNELS 3 Zrotation Yrotation Xrotation
			JOINT Spine1
			{
				OFFSET 0.000000 1.950000 0.060000
				CHANNELS 3 Zrotation Yrotation Xrotation
				JOINT Neck
				{
					OFFSET 0.000000 0.000000 0.000000
					CHANNELS 3 Zrotation Yrotation Xrotation
					JOINT Neck1
					{
						OFFSET 0.000000 1.600000 0.340000
						CHANNELS 3 Zrotation Yrotation Xrotation
						JOINT Head
						{
							OFFSET 0.000000 1.667000 -0.240000
							CHANNELS 3 Zrotation Yrotation Xrotation
							End Site
							{
								OFFSET 0.000000 0.000000 0.000000
							}
						}
					}
				}
				JOINT LeftShoulder
				{
					OFFSET 0.000000 0.000000 0.000000
					CHANNELS 3 Zrotation Yrotation Xrotation
					JOINT LeftArm
					{
						OFFSET 2.700000 1.550000 -0.730000
						CHANNELS 3 Zrotation Yrotation Xrotation
						JOINT LeftForeArm
						{
							OFFSET 5.450000 0.000000 0.000000
							CHANNELS 3 Zrotation Yrotation Xrotation
							JOINT LeftHand
							{
								OFFSET 3.450000 0.000000 0.000000
								CHANNELS 3 Zrotation Yrotation Xrotation
								JOINT LeftHandIndex1
								{
									OFFSET 0.750000 0.000000 0.000000
									CHANNELS 3 Zrotation Yrotation Xrotation
									End Site
									{
										OFFSET 0.000000 0.000000 0.000000
									}
								}
							}
						}
					}
				}
				JOINT RightShoulder
				{
					OFFSET 0.000000 0.000000 0.000000
					CHANNELS 3 Zrotation Yrotation Xrotation
					JOINT RightArm
					{
						OFFSET -2.700000 1.550000 -0.730000
						CHANNELS 3 Zrotation Yrotation Xrotation
						JOINT RightForeArm
						{
							OFFSET -5.450000 0.000000 0.000000
							CHANNELS 3 Zrotation Yrotation Xrotation
							JOINT RightHand
							{
								OFFSET -3.450000 0.000000 0.000000
								CHANNELS 3 Zrotation Yrotation Xrotation
								JOINT RightHandIndex1
								{
									OFFSET -0.750000 0.000000 0.000000
									CHANNELS 3 Zrotation Yrotation Xrotation
									End Site
									{
										OFFSET 0.000000 0.000000 0.000000
									}
								}
							}
						}
					}
				}
			}
		}
	}
}
MOTION
Frames: 9
Frame Time: 0.016667
0.175510 16.873300 -1.438050 -3.979184 0.853613 -5.315268 -14.985387 13.162439 3.344539 7.269656 -3.214465 -14.636321 -13.257083 12.178650 33.004238 0.382049 7.301548 2.013851 0.359100 0.294890 0.129610 18.282715 -11.025351 2.976025 -4.137764 2.645755 -10.555682 15.263073 -10.991569 29.863513 -0.817365 -5.839634 2.378110 0.138830 0.135870 0.160170 -3.873864 -1.375197 -8.247424 10.705963 -0.934891 17.133094 -4.648392 1.804147 20.978277 3.469190 -3.401131 -21.152491 -8.730875 2.666763 39.005838 1.199920 -0.464440 -10.283370 -23.572005 -37.486503 12.943427 -40.032666 -8.840959 -3.410367 0.092020 -16.307285 -1.386114 -3.452205 3.010139 0.386090 0.016840 0.114340 0.179250 17.725790 42.521149 17.775434 44.385869 6.285378 -7.379616 0.623324 21.871696 -1.471772 2.010114 -1.393653 -0.027850 0.226630 -0.029630 -0.053080 
0.175560 16.844950 -1.438720 -4.022268 0.781754 -5.369944 -14.997179 13.108348 3.389223 7.758514 -3.347074 -14.989662 -13.914332 12.661865 33.619262 0.428312 7.530145 1.935346 0.348000 0.282260 0.121720 18.278959 -10.967227 2.978407 -4.474717 2.850870 -10.884308 15.899556 -11.416860 30.575381 -0.844341 -6.006195 2.320394 0.133160 0.141610 0.161060 -3.850775 -1.387699 -8.282229 10.698907 -0.906047 17.332106 -4.588338 1.830701 20.703342 3.501506 -3.355492 -21.029063 -8.599577 2.580606 38.780327 0.982400 -0.438500 -10.047920 -23.518229 -37.102751 12.811733 -39.689851 -8.624143 -3.390005 -0.094759 -16.244350 -1.347740 -3.465450 3.005832 0.381020 0.023990 0.107210 0.177070 17.586054 42.125787 17.728786 44.132230 5.885534 -7.381210 0.650196 21.826276 -1.456082 2.012667 -1.391789 -0.031250 0.223760 -0.024170 -0.053360 
0.177140 16.791600 -1.441150 -4.061722 0.614980 -5.460853 -15.018154 12.991833 3.467363 8.602579 -3.573133 -15.584577 -15.129514 13.572205 34.697337 0.518977 7.949852 1.796063 0.332320 0.265100 0.108250 18.278225 -10.859167 2.978714 -5.155684 3.202618 -11.468650 17.064726 -12.194143 31.764708 -0.893872 -6.313710 2.214310 0.127430 0.154610 0.162740 -3.818099 -1.388872 -8.328327 10.682317 -0.861018 17.614753 -4.471723 1.855726 20.275402 3.529271 -3.335196 -20.670168 -8.408939 2.465382 38.141554 0.580200 -0.350060 -9.539690 -23.048807 -36.265347 12.527013 -39.251113 -8.359073 -3.402555 -0.490735 -16.356535 -1.296117 -3.490661 3.004520 0.365270 0.039700 0.091080 0.177180 17.035436 41.287222 17.591051 43.661846 5.339377 -7.327263 0.747127 21.750458 -1.431374 2.019171 -1.395078 -0.035980 0.217710 -0.018180 -0.051810 
0.179030 16.728440 -1.446120 -4.095689 0.241152 -5.705382 -15.045317 12.864265 3.576710 9.725201 -3.773138 -16.140019 -16.754783 14.766260 35.826419 0.630138 8.475530 1.627143 0.316470 0.238900 0.102300 18.272221 -10.713359 2.987804 -6.045183 3.643863 -12.032719 18.478188 -13.161436 33.141209 -0.966138 -6.684478 2.088138 0.116770 0.166790 0.163030 -3.766505 -1.437026 -8.409568 10.689717 -0.833056 18.237113 -4.353700 1.938418 19.693094 3.574497 -3.430353 -20.409595 -8.529136 2.419535 37.840448 0.236050 -0.312980 -9.198070 -22.529830 -35.220949 12.185099 -38.501788 -7.860327 -3.453467 -1.107797 -16.593309 -1.231816 -3.508940 2.985380 0.366780 0.048280 0.081160 0.177230 16.421132 40.355441 17.513431 42.809871 4.522300 -7.386445 0.690403 21.848741 -1.418984 2.021173 -1.386496 -0.048470 0.220530 -0.011680 -0.055220 
0.179150 16.653800 -1.451100 -4.104415 -0.136154 -5.936544 -15.080876 12.715142 3.713315 11.000557 -3.986577 -16.850161 -18.544490 16.176017 37.134904 0.764872 9.072361 1.439296 0.294020 0.209170 0.086890 18.263062 -10.532144 3.004958 -7.087281 4.127486 -12.684020 20.099699 -14.304587 34.604170 -1.051051 -7.107084 1.949832 0.102560 0.182120 0.159570 -3.700413 -1.512535 -8.512709 10.629996 -0.801440 18.987958 -4.149973 2.037287 18.799300 3.570163 -3.609633 -20.092101 -8.811647 2.382758 37.543290 -0.093360 -0.311010 -8.819120 -22.059090 -33.813736 11.724684 -37.573193 -7.179651 -3.605227 -1.964125 -17.104022 -1.153901 -3.527709 2.962858 0.366490 0.057430 0.068370 0.177640 15.957389 39.131528 17.383455 41.597945 3.543211 -7.312392 0.882762 21.742496 -1.322700 2.028254 -1.369527 -0.061740 0.225970 -0.001510 -0.056330 
0.179560 16.577220 -1.458220 -4.172112 -0.587356 -6.264410 -15.126394 12.580188 3.878109 12.524271 -4.124921 -17.514760 -20.546822 17.732779 38.281797 0.903220 9.678534 1.245587 0.284540 0.183850 0.092460 18.242673 -10.312709 3.038390 -8.139489 4.669432 -13.316675 21.810745 -15.567987 36.133054 -1.156334 -7.546948 1.809451 0.086220 0.175140 0.152040 -3.605122 -1.665495 -8.656339 10.587528 -0.827818 20.137473 -4.026423 2.172621 17.454228 3.664941 -3.764395 -19.875669 -9.202155 2.422426 37.780561 -0.348430 -0.259070 -8.821740 -21.972819 -32.172688 11.211682 -36.140261 -6.082486 -3.877731 -3.126904 -17.837247 -1.042560 -3.522447 2.936072 0.388680 0.048530 0.069090 0.173410 15.656943 37.733204 17.207019 40.011646 2.389524 -7.266030 1.305772 21.738525 -1.162505 2.037038 -1.340380 -0.074520 0.227690 0.000170 -0.069210 
0.179570 16.498220 -1.462740 -4.225400 -0.972926 -6.474776 -15.183930 12.439686 4.065746 14.151291 -4.245810 -18.324295 -22.619292 19.395168 39.401460 1.051358 10.293953 1.057332 0.283010 0.154710 0.105260 18.215532 -10.060208 3.076648 -9.282323 5.182021 -14.011126 23.669420 -16.924236 37.463432 -1.273417 -7.986299 1.672692 0.062230 0.166210 0.157670 -3.486778 -1.866792 -8.814497 10.427600 -0.844480 21.343334 -3.872621 2.317310 15.437691 3.744075 -3.858821 -19.462400 -9.546741 2.403775 38.167339 -0.605450 -0.255070 -8.831890 -22.025428 -30.014053 10.529881 -34.571278 -4.886839 -4.066090 -4.579338 -18.460732 -0.870161 -3.519346 2.916883 0.420370 0.037960 0.075170 0.174630 15.491509 35.775526 16.820145 38.349179 1.171158 -7.222900 1.887750 21.802167 -0.956477 2.048997 -1.313463 -0.081120 0.219830 -0.002820 -0.084190 
0.181400 16.426420 -1.469280 -4.347174 -1.345943 -6.998900 -15.220589 12.305086 4.193572 15.468558 -4.251775 -18.660697 -24.200332 20.826515 40.429629 1.185413 10.792998 0.904333 0.287680 0.156460 0.115350 18.209275 -9.876413 3.108318 -10.056621 5.613457 -14.337099 25.030245 -18.087955 38.782912 -1.381653 -8.384208 1.541716 0.059290 0.155180 0.161360 -3.428711 -1.955316 -8.915007 10.518126 -0.918162 22.356992 -3.879138 2.412973 14.961489 3.902921 -3.960851 -19.406428 -9.727721 2.455803 38.110631 -0.879170 -0.126180 -8.992810 -21.544035 -29.004666 10.243096 -33.135927 -4.030970 -4.342685 -5.049927 -19.230310 -0.806860 -3.512169 2.915986 0.426320 0.031110 0.083960 0.173530 14.697640 34.993930 16.791272 36.976260 0.420573 -7.195564 1.264990 21.835866 -0.964161 2.053401 -1.311534 -0.076790 0.213120 -0.008520 -0.087250 
0.183870 16.355400 -1.470240 -4.469421 -1.789752 -7.372372 -15.272972 12.204690 4.330313 16.850270 -4.172017 -19.008343 -25.797346 22.228192 41.176710 1.311783 11.234921 0.771276 0.280980 0.143510 0.118250 18.186032 -9.669065 3.142731 -10.802235 6.042617 -14.748874 26.308214 -19.248834 40.045890 -1.481284 -8.760169 1.428631 0.044610 0.144630 0.163030 -3.325078 -2.131779 -9.030766 10.427809 -0.925515 23.355802 -3.721918 2.513644 13.857540 4.090540 -4.004229 -19.292734 -9.901665 2.550429 38.309392 -1.301770 0.117560 -8.875960 -21.488260 -27.649868 9.867054 -31.624456 -2.877418 -4.568271 -5.652327 -19.871100 -0.693988 -3.509444 2.913337 0.432870 0.027140 0.088430 0.169400 14.260774 33.839368 16.652073 35.281645 -0.597895 -7.127247 1.130305 21.892658 -0.865659 2.061312 -1.298669 -0.073960 0.202560 -0.009020 -0.093100 
